<?xml version="1.0" standalone="no"?>
<!DOCTYPE svg PUBLIC "-//W3C//DTD SVG 20010904//EN"
 "http://www.w3.org/TR/2001/REC-SVG-20010904/DTD/svg10.dtd">
<svg version="1.0" xmlns="http://www.w3.org/2000/svg"
 width="960.000000pt" height="960.000000pt" viewBox="0 0 960.000000 960.000000"
 preserveAspectRatio="xMidYMid meet">
<metadata>
Created by potrace 1.11, written by Peter Selinger 2001-2013
</metadata>
<g transform="translate(0.000000,960.000000) scale(0.100000,-0.100000)"
fill="#000000" stroke="none">
<path d="M4206 9370 c1 -203 -1 -230 -15 -234 -9 -3 -695 -5 -1526 -5 -830 0
-1518 0 -1527 -1 -17 0 -18 -35 -18 -584 l0 -584 1535 0 c845 0 1539 -3 1543
-7 4 -3 7 -108 8 -231 1 -220 0 -225 -20 -229 -12 -2 -706 -3 -1544 -2 l-1522
2 2 -585 3 -585 3678 -1 3677 -1 0 584 c0 548 -1 583 -17 584 -10 0 -695 1
-1523 0 -828 0 -1514 2 -1526 4 -20 4 -21 9 -20 229 1 123 4 227 8 231 4 4
698 7 1542 7 l1536 0 0 584 c0 321 -3 584 -7 584 -5 1 -699 2 -1543 3 l-1535
2 0 233 0 232 -595 0 -595 0 1 -230z"/>
<path d="M1130 5850 c-13 -8 6 -393 34 -680 3 -30 8 -82 10 -115 3 -33 7 -76
10 -95 3 -19 7 -62 11 -95 3 -33 7 -71 9 -85 2 -14 7 -50 11 -80 16 -131 24
-190 29 -215 3 -18 15 -100 22 -150 1 -11 3 -20 4 -20 1 0 3 -11 4 -25 2 -14
6 -38 9 -55 3 -16 9 -50 12 -75 4 -24 8 -47 10 -50 3 -5 12 -53 19 -105 5 -34
35 -172 41 -186 3 -8 7 -27 10 -44 6 -40 20 -102 45 -200 11 -44 22 -88 25
-98 2 -10 7 -28 11 -40 5 -12 8 -26 9 -32 2 -18 26 -99 40 -138 8 -20 15 -40
16 -45 2 -11 5 -22 25 -87 10 -33 19 -62 19 -65 1 -3 4 -12 8 -20 3 -8 19 -53
36 -100 45 -129 71 -202 86 -235 7 -16 19 -46 28 -65 41 -97 64 -145 118 -255
32 -66 65 -131 73 -145 25 -43 131 -221 141 -239 6 -9 35 -51 65 -95 30 -43
60 -86 65 -95 6 -9 12 -18 15 -21 8 -8 52 -62 80 -100 14 -18 33 -42 43 -54
100 -116 139 -158 252 -271 72 -71 160 -155 195 -185 35 -30 68 -60 74 -65 6
-6 45 -38 86 -70 41 -33 77 -62 80 -65 3 -3 34 -27 70 -52 36 -26 70 -51 75
-56 6 -4 46 -32 90 -62 44 -30 82 -58 83 -62 2 -5 9 -8 15 -8 7 0 30 -14 51
-30 22 -17 45 -30 52 -30 7 0 14 -4 16 -9 4 -11 102 -71 283 -174 206 -117
435 -232 748 -376 38 -17 70 -31 72 -31 6 0 115 -49 148 -66 15 -9 27 -13 27
-9 0 3 14 -2 31 -11 24 -12 37 -13 53 -6 26 13 90 41 176 77 36 15 94 41 130
57 36 17 99 46 140 65 81 37 369 181 435 217 43 24 121 67 200 111 28 15 74
43 103 62 29 18 55 33 58 33 8 0 390 256 404 270 3 3 43 34 90 69 47 35 93 72
103 83 10 10 21 18 25 18 4 0 23 15 43 33 20 18 62 55 94 82 75 64 326 314
387 385 60 71 107 129 138 170 22 29 42 53 69 86 5 6 35 51 67 100 33 49 61
91 64 94 6 6 86 138 111 185 65 121 132 257 174 350 26 61 56 129 66 152 11
23 19 44 19 47 0 2 5 17 12 33 6 15 12 30 13 33 1 3 4 12 8 20 3 8 20 56 38
105 17 50 34 97 37 105 3 8 6 18 7 23 2 4 3 8 5 10 1 1 3 9 5 17 1 8 13 45 25
83 12 37 23 73 24 80 2 6 6 19 9 27 7 17 35 121 43 159 3 13 9 32 15 43 5 10
8 18 5 18 -3 0 0 15 5 33 6 17 12 43 15 57 3 14 17 72 31 130 14 58 27 115 29
128 7 41 12 67 23 117 6 28 12 64 15 80 3 17 7 41 11 55 8 35 24 130 39 225 2
17 7 49 11 73 4 23 8 52 10 65 1 12 5 42 9 67 11 77 16 113 21 159 3 23 7 55
10 70 2 14 7 55 10 91 3 36 8 81 10 100 9 67 33 338 40 450 15 237 18 295 19
365 l1 79 -654 0 c-643 0 -654 0 -657 -19 -7 -45 -7 -81 0 -104 5 -13 4 -21
-1 -18 -7 4 -9 -34 -3 -53 1 -3 1 -34 1 -70 -1 -36 -1 -74 -1 -85 1 -11 1 -24
2 -30 2 -48 -19 -467 -27 -545 -3 -30 -8 -86 -10 -125 -3 -38 -5 -70 -6 -70
-1 0 -4 -23 -13 -110 -3 -33 -8 -71 -11 -84 -2 -13 -5 -41 -7 -62 -1 -22 -4
-39 -7 -39 -4 0 -7 -15 -7 -33 -2 -41 -11 -99 -45 -277 -22 -114 -92 -407
-115 -480 -55 -170 -77 -239 -89 -265 -7 -16 -16 -41 -20 -55 -28 -95 -160
-378 -255 -545 -83 -146 -225 -354 -307 -451 -10 -11 -34 -40 -53 -64 -73 -90
-317 -329 -425 -415 -28 -21 -52 -42 -55 -45 -12 -14 -191 -141 -255 -181 -38
-24 -71 -47 -73 -51 -2 -4 -7 -8 -11 -8 -5 0 -46 -22 -92 -48 -46 -27 -120
-66 -164 -88 -44 -21 -81 -42 -83 -46 -2 -5 -8 -8 -13 -8 -5 0 -42 -15 -81
-33 -141 -65 -131 -64 -238 -17 -141 62 -322 156 -435 225 -55 34 -111 68
-125 76 -14 8 -27 16 -30 19 -3 3 -31 23 -62 44 -32 21 -66 47 -77 57 -11 11
-24 19 -28 19 -5 0 -19 10 -33 23 -14 12 -47 40 -75 62 -115 92 -320 292 -415
405 -30 36 -57 67 -60 70 -14 14 -132 174 -177 240 -125 185 -280 478 -358
680 -10 25 -21 54 -25 65 -22 55 -42 112 -45 125 -2 8 -13 39 -24 68 -10 28
-18 52 -16 52 2 0 -2 15 -10 34 -8 18 -16 44 -19 57 -3 13 -15 58 -26 99 -26
92 -87 355 -94 407 -3 21 -12 72 -20 113 -8 41 -17 95 -20 120 -3 25 -8 54
-10 65 -2 12 -7 48 -11 80 -4 33 -9 74 -12 90 -2 17 -6 50 -8 75 -2 25 -6 68
-9 95 -16 149 -24 291 -31 529 -3 98 -7 182 -10 186 -2 4 0 21 5 38 4 18 5 34
1 36 -8 5 -6 105 2 113 3 2 1 18 -3 34 -5 18 -5 29 1 29 6 0 7 5 3 12 -4 6 -7
27 -6 47 l2 36 -651 0 c-358 0 -655 -2 -659 -5z"/>
</g>
</svg>
